<svg xmlns="http://www.w3.org/2000/svg" viewBox="0 0 500 500"><g id="freepik--background-simple--inject-62"><path d="M329,34.58s-77.4-27.52-153.37,16.3S61.3,181.67,28.38,251.34s-14,140.55,44,172.86,97.43-15.32,178.79-17.64S354.44,415.87,422,369.91s79.71-154.51,26.46-234.82S329,34.58,329,34.58Z" style="fill:#92E3A9"></path><path d="M329,34.58s-77.4-27.52-153.37,16.3S61.3,181.67,28.38,251.34s-14,140.55,44,172.86,97.43-15.32,178.79-17.64S354.44,415.87,422,369.91s79.71-154.51,26.46-234.82S329,34.58,329,34.58Z" style="fill:#fff;opacity:0.7000000000000001"></path></g><g id="freepik--Clouds--inject-62"><path d="M149,102.1c-3.84-2.1-5.59-.35-7-2.1s3.85-6.29-6.64-10.84c0,0-.7-9.79-15-10.14S109.83,88.81,106,91.26s-4.9-1.4-8.75,1-2.09,7.34-5.24,8-7.34-3.15-11.19-.7S77,104.2,75.22,104.2s-5.25-1.4-7.35,0-4.54,3.14-4.54,3.14h88.46S152.84,104.2,149,102.1Z" style="fill:none;stroke:#263238;stroke-linecap:round;stroke-linejoin:round;stroke-width:0.686672px"></path><path d="M96.66,100.66a11,11,0,0,1-1.56.74" style="fill:none;stroke:#263238;stroke-linecap:round;stroke-linejoin:round;stroke-width:0.686672px"></path><path d="M115.59,84.33a6,6,0,0,0-3.42,4.27c-.64,3.2-2.13,5.33-3.84,5.54s-8.11-.42-9.17,1.92a9.33,9.33,0,0,0-.6,2.15" style="fill:none;stroke:#263238;stroke-linecap:round;stroke-linejoin:round;stroke-width:0.686672px"></path><path d="M409,151.25c-3-1.63-4.35-.27-5.43-1.63s3-4.89-5.17-8.42c0,0-.54-7.62-11.69-7.89s-8.15,7.61-11.14,9.52-3.8-1.09-6.79.81-1.64,5.71-4.08,6.25-5.71-2.44-8.7-.54-3,3.53-4.35,3.53-4.08-1.08-5.71,0-3.53,2.45-3.53,2.45h68.77S412,152.88,409,151.25Z" style="fill:none;stroke:#263238;stroke-linecap:round;stroke-linejoin:round;stroke-width:0.686672px"></path><path d="M368.32,150.14a10.89,10.89,0,0,1-1.21.57" style="fill:none;stroke:#263238;stroke-linecap:round;stroke-linejoin:round;stroke-width:0.686672px"></path><path d="M383,137.44a4.65,4.65,0,0,0-2.65,3.32c-.5,2.48-1.66,4.14-3,4.31s-6.3-.33-7.13,1.49a7,7,0,0,0-.46,1.67" style="fill:none;stroke:#263238;stroke-linecap:round;stroke-linejoin:round;stroke-width:0.686672px"></path><line x1="361.44" y1="149.54" x2="366.21" y2="149.54" style="fill:none;stroke:#263238;stroke-linecap:round;stroke-linejoin:round;stroke-width:0.686672px"></line><path d="M403.57,149.54h32.14s2.58-7.75-6.89-12.92-13.78-.86-17.22-5.17,9.47-15.5-16.37-26.69c0,0-1.72-24.12-37-25s-25.83,24.11-35.31,30.14-12.05-3.44-21.53,2.59-5.16,18.08-12.91,19.8-18.09-7.75-27.56-1.72-9.47,11.2-13.78,11.2-12.92-3.45-18.09,0-11.19,7.75-11.19,7.75H356" style="fill:none;stroke:#263238;stroke-linecap:round;stroke-linejoin:round;stroke-width:0.686672px"></path><path d="M299.93,133.08a30.64,30.64,0,0,1-3.84,1.82" style="fill:none;stroke:#263238;stroke-linecap:round;stroke-linejoin:round;stroke-width:0.686672px"></path><path d="M304.6,127a23.34,23.34,0,0,1,1.47-5.28c2.63-5.78,18.4-4.21,22.6-4.73s7.88-5.78,9.46-13.67a14.72,14.72,0,0,1,8.41-10.51" style="fill:none;stroke:#263238;stroke-linecap:round;stroke-linejoin:round;stroke-width:0.686672px"></path></g><g id="freepik--Car--inject-62"><path d="M159.39,399.67h38.41a0,0,0,0,1,0,0v47a14,14,0,0,1-14,14H173.39a14,14,0,0,1-14-14v-47A0,0,0,0,1,159.39,399.67Z" style="fill:#263238;stroke:#263238;stroke-linecap:round;stroke-linejoin:round"></path><path d="M413.2,399.67h38.41a0,0,0,0,1,0,0v47a14,14,0,0,1-14,14H427.2a14,14,0,0,1-14-14v-47A0,0,0,0,1,413.2,399.67Z" style="fill:#263238;stroke:#263238;stroke-linecap:round;stroke-linejoin:round"></path><path d="M466.17,273c-2.91-3.4-14.58-4.86-20.42-5.35s-7.29,4.86-7.29,9.73,1,12.15,0,14.1l-1,1.94L426.3,264.25l-25.15-50.32a13.53,13.53,0,0,0-6.36-6.27,21.58,21.58,0,0,0-4.17-1.43L301.56,204q-3.74-.09-7.48,0L215,206.23a5.69,5.69,0,0,0-2.61,2.59s-30.15,60.78-33.55,69.53-5.35,16-5.35,16a5.62,5.62,0,0,1-1.94-4.37c0-2.92,0-19-1-21.4s-18,0-25.28,4.38-2.92,12.64,3.4,16.05a39.3,39.3,0,0,0,14.1,3.89l6.33,9.23s-8.27,8.76-9.24,11.67-4.87,34-4.87,43.77,1.46,42.78,3.89,47.65S167.63,416,171,416.93s139.55,4.86,139.55,4.86l125-2.92s11.19,3.4,15.56-19,3.4-41.33,3.4-54-1-30.15-2.91-34-7.78-8.75-8.75-10.21,2.43-10.7,2.43-10.7,17.5-1.46,20.9-3.89S469.09,276.4,466.17,273Z" style="fill:#92E3A9;stroke:#263238;stroke-linecap:round;stroke-linejoin:round"></path><path d="M213.34,270.45S199,283.58,251,289,359,303.88,371,309.25l11.94,5.38L408,302.69S396,289,363.78,283.58s-93.13-8.95-114-16.11S213.34,264.48,213.34,270.45Z" style="fill:#fff"></path><line x1="242.21" y1="366.48" x2="247.32" y2="382.95" style="fill:none;stroke:#263238;stroke-linecap:round;stroke-linejoin:round"></line><line x1="370.58" y1="366.48" x2="365.47" y2="382.95" style="fill:none;stroke:#263238;stroke-linecap:round;stroke-linejoin:round"></line><path d="M180.93,281.92s2.52,13.64,15.8,20.1,44.51,24.77,44.51,24.77" style="fill:none;stroke:#263238;stroke-linecap:round;stroke-linejoin:round"></path><path d="M430.43,281.92s-2.51,13.64-15.79,20.1-44.52,24.77-44.52,24.77" style="fill:none;stroke:#263238;stroke-linecap:round;stroke-linejoin:round"></path><line x1="189.91" y1="354.8" x2="213.24" y2="380.64" style="fill:none;stroke:#263238;stroke-linecap:round;stroke-linejoin:round"></line><line x1="419.3" y1="355.51" x2="397.76" y2="382.8" style="fill:#fff;stroke:#263238;stroke-linecap:round;stroke-linejoin:round"></line><line x1="375.51" y1="333.97" x2="385.95" y2="333.97" style="fill:none;stroke:#263238;stroke-linecap:round;stroke-linejoin:round"></line><line x1="237.29" y1="333.97" x2="224.65" y2="333.97" style="fill:none;stroke:#263238;stroke-linecap:round;stroke-linejoin:round"></line><path d="M156.17,385.49c.66,9.22,1.58,17.52,2.7,19.77,2.44,4.86,8.76,10.69,12.16,11.67s139.55,4.86,139.55,4.86l125-2.92s11.19,3.4,15.56-19c1-5,1.68-9.8,2.19-14.42Z" style="fill:#757575;stroke:#263238;stroke-linecap:round;stroke-linejoin:round"></path><path d="M256.26,400H244.44l-13.91,19.31c38,1.24,80,2.44,80,2.44l71.09-1.66L367.21,400H355.39l-49.57.87Z" style="fill:#ababab;stroke:#263238;stroke-linecap:round;stroke-linejoin:round"></path><path d="M211.39,215.14s-22.86,60.29-22.86,62.24,138.1-.49,138.1-.49H421s2.92-1.94,1.46-8.75-24.79-51.54-24.79-51.54-86.07-3.41-111.84-3.41S211.39,215.14,211.39,215.14Z" style="fill:#263238;stroke:#263238;stroke-linecap:round;stroke-linejoin:round"></path><polygon points="203.86 238.93 241.43 277.3 215.45 277.3 196.66 258.91 203.86 238.93" style="fill:#fff;opacity:0.2"></polygon><polygon points="280.21 216.72 419.3 266.27 413.33 250.75 333.94 216.72 280.21 216.72" style="fill:#fff;opacity:0.2"></polygon><polygon points="391.38 256.61 305.66 256.61 309 228.26 388.03 228.26 391.38 256.61" style="fill:#fff;stroke:#263238;stroke-linecap:round;stroke-linejoin:round"></polygon><path d="M321.62,240.43l-.15,1.9h-4.14l-.74,8.31h-2L316.31,232h6.93l-.13,1.81h-5l-.59,6.62Z" style="fill:#263238"></path><path d="M324.34,236.32c.19-2.74,1.63-4.49,4.3-4.49s3.94,1.75,3.81,4.49L332,246c-.14,2.93-1.63,4.88-4.47,4.88s-4.08-2-3.87-4.88Zm1.31,9.74c-.11,1.76.53,2.79,2,2.79s2.22-1,2.32-2.79l.51-9.84c.09-1.62-.51-2.59-1.94-2.59s-2.15,1-2.25,2.59Z" style="fill:#263238"></path><path d="M338.39,232c2.74,0,3.87,1.42,3.82,4.09l0,1.48c0,2-.75,3.29-2.3,3.79,1.63.51,2.22,1.91,2.18,3.94l-.05,3a5.11,5.11,0,0,0,.32,2.35h-2.08a5.46,5.46,0,0,1-.28-2.37l.07-3c0-2.14-.88-2.81-2.55-2.81h-1.42l-.29,8.21h-2L334.5,232Zm-.77,8.54c1.59,0,2.55-.53,2.6-2.53l0-1.74c0-1.62-.52-2.46-2-2.46h-1.91l-.24,6.73Z" style="fill:#263238"></path><path d="M355.85,236.3v.49H354v-.6c0-1.62-.65-2.56-2.05-2.56s-2,.94-2,2.54c0,4.11,6,4.5,6.15,9.81.06,2.92-1.24,4.85-4.06,4.85s-4.13-1.93-4.12-4.85v-1.09h1.89v1.2c0,1.73.7,2.76,2.16,2.76s2.13-1,2.11-2.76c-.07-4.22-6.08-4.62-6.07-9.79,0-2.78,1.25-4.47,3.87-4.47S355.79,233.58,355.85,236.3Z" style="fill:#263238"></path><path d="M359.92,246.72l-.58,3.92h-1.89L360.32,232h2.82l4.33,18.64h-2.05l-.89-3.92Zm.2-1.83h4.05l-2.46-10.65Z" style="fill:#263238"></path><path d="M369.08,250.64,368,232H370L371,248.65h5.23l.16,2Z" style="fill:#263238"></path><path d="M383.44,240l.18,1.86h-4.39l.6,6.78h5.5l.2,2H378L376.42,232h7.18l.19,1.81h-5.27l.55,6.2Z" style="fill:#263238"></path><path d="M428.73,307s-18.47,4.86-27.22,10.69-12.65,9.24-15.56,17S383,355.17,383,355.17s47.65-6.8,55.92-11.67,8.75-15.55,9.23-19.44a20.43,20.43,0,0,0-.48-7.3Z" style="fill:#fff;stroke:#263238;stroke-linecap:round;stroke-linejoin:round"></path><line x1="397.65" y1="337.69" x2="397.65" y2="349.65" style="fill:none;stroke:#263238;stroke-linecap:round;stroke-linejoin:round"></line><line x1="397.65" y1="332.65" x2="397.65" y2="335.02" style="fill:none;stroke:#263238;stroke-linecap:round;stroke-linejoin:round"></line><line x1="403.17" y1="330.52" x2="403.17" y2="347.52" style="fill:none;stroke:#263238;stroke-linecap:round;stroke-linejoin:round"></line><line x1="408.7" y1="342.26" x2="408.7" y2="345.38" style="fill:none;stroke:#263238;stroke-linecap:round;stroke-linejoin:round"></line><line x1="408.7" y1="328.39" x2="408.7" y2="339.79" style="fill:none;stroke:#263238;stroke-linecap:round;stroke-linejoin:round"></line><line x1="414.22" y1="326.26" x2="414.22" y2="343.25" style="fill:none;stroke:#263238;stroke-linecap:round;stroke-linejoin:round"></line><line x1="419.74" y1="338.83" x2="419.74" y2="341.12" style="fill:none;stroke:#263238;stroke-linecap:round;stroke-linejoin:round"></line><line x1="419.74" y1="324.13" x2="419.74" y2="336.16" style="fill:none;stroke:#263238;stroke-linecap:round;stroke-linejoin:round"></line><line x1="425.27" y1="322" x2="425.27" y2="338.99" style="fill:none;stroke:#263238;stroke-linecap:round;stroke-linejoin:round"></line><line x1="430.79" y1="331.97" x2="430.79" y2="336.86" style="fill:none;stroke:#263238;stroke-linecap:round;stroke-linejoin:round"></line><line x1="430.79" y1="319.86" x2="430.79" y2="328.73" style="fill:none;stroke:#263238;stroke-linecap:round;stroke-linejoin:round"></line><line x1="436.32" y1="317.73" x2="436.32" y2="334.73" style="fill:none;stroke:#263238;stroke-linecap:round;stroke-linejoin:round"></line><path d="M181.86,307s18.48,4.86,27.23,10.69,12.64,9.24,15.56,17,2.92,20.42,2.92,20.42-47.65-6.8-55.92-11.67-8.75-15.55-9.24-19.44a20.56,20.56,0,0,1,.49-7.3Z" style="fill:#fff;stroke:#263238;stroke-linecap:round;stroke-linejoin:round"></path><line x1="211.65" y1="337.69" x2="211.65" y2="349.65" style="fill:none;stroke:#263238;stroke-linecap:round;stroke-linejoin:round"></line><line x1="211.65" y1="332.65" x2="211.65" y2="335.02" style="fill:none;stroke:#263238;stroke-linecap:round;stroke-linejoin:round"></line><line x1="206.13" y1="330.52" x2="206.13" y2="347.52" style="fill:none;stroke:#263238;stroke-linecap:round;stroke-linejoin:round"></line><line x1="200.6" y1="342.26" x2="200.6" y2="345.38" style="fill:none;stroke:#263238;stroke-linecap:round;stroke-linejoin:round"></line><line x1="200.6" y1="328.39" x2="200.6" y2="339.79" style="fill:none;stroke:#263238;stroke-linecap:round;stroke-linejoin:round"></line><line x1="195.08" y1="326.26" x2="195.08" y2="343.25" style="fill:none;stroke:#263238;stroke-linecap:round;stroke-linejoin:round"></line><line x1="189.55" y1="338.83" x2="189.55" y2="341.12" style="fill:none;stroke:#263238;stroke-linecap:round;stroke-linejoin:round"></line><line x1="189.55" y1="324.13" x2="189.55" y2="336.16" style="fill:none;stroke:#263238;stroke-linecap:round;stroke-linejoin:round"></line><line x1="184.03" y1="322" x2="184.03" y2="338.99" style="fill:none;stroke:#263238;stroke-linecap:round;stroke-linejoin:round"></line><line x1="178.5" y1="331.97" x2="178.5" y2="336.86" style="fill:none;stroke:#263238;stroke-linecap:round;stroke-linejoin:round"></line><line x1="178.5" y1="319.86" x2="178.5" y2="328.73" style="fill:none;stroke:#263238;stroke-linecap:round;stroke-linejoin:round"></line><line x1="172.98" y1="317.73" x2="172.98" y2="334.73" style="fill:none;stroke:#263238;stroke-linecap:round;stroke-linejoin:round"></line><path d="M242,364.13A205.32,205.32,0,0,1,237.29,334l12.93-5.74,52.88.7,59.48-.7L375.51,334a205.32,205.32,0,0,1-4.67,30.16Zm6.91,22.62c3.55,9,7.14,14.86,10,16.51,4.24,2.47,14.37,6.66,44.33,5.11,36.43,1.55,46.57-2.64,50.81-5.11,2.82-1.65,6.41-7.47,10-16.51Z" style="fill:#263238;stroke:#263238;stroke-linecap:round;stroke-linejoin:round"></path><path d="M375.51,334l-12.93-5.74-59.48.7-52.88-.7L237.29,334s.05.71.16,2l42.21,5.56,6.46,3.59h40.2l6.47-3.59L375.34,336C375.46,334.71,375.51,334,375.51,334Z" style="fill:#757575;stroke:#263238;stroke-linecap:round;stroke-linejoin:round"></path><polygon points="362.58 328.23 303.1 328.93 250.22 328.23 245.37 330.38 271.4 330.38 277.86 332.9 336.38 332.9 341.04 330.74 368.24 330.74 362.58 328.23" style="fill:#263238;stroke:#263238;stroke-linecap:round;stroke-linejoin:round"></polygon><path d="M239.45,350.13l3.59-4.31h9.33A129.39,129.39,0,0,0,270,349.05c9.7,1.08,79.34,0,79.34,0l12.56-2.87H369l3.59,5.74-45.95,5-7.89,2.87H291.5l-6.82-3.95Z" style="fill:#757575;stroke:#263238;stroke-linecap:round;stroke-linejoin:round"></path><path d="M364,357.67,351.09,362H261.35l-12.93-4.31-8-.89c.45,2.36,1,4.82,1.56,7.35H370.84c.51-2.21,1-4.37,1.39-6.46Z" style="fill:#757575;stroke:#263238;stroke-linecap:round;stroke-linejoin:round"></path><path d="M216.11,409.36l3.59-6.46a29.1,29.1,0,0,0-15.79-11.85c-11.13-3.59-23.34-5.38-27.29-3.95s-5,11.85-4.3,14.72,4,5.39,4,5.39Z" style="fill:#474747"></path><path d="M203.91,391.05a102.46,102.46,0,0,0-17.43-4,6.22,6.22,0,0,0-3.39,3.64c-2.52,6.11-2.16,10.42,1.43,15.08a15.27,15.27,0,0,0,1.83,2l29.76,1.61,3.59-6.46A29.1,29.1,0,0,0,203.91,391.05Z" style="fill:#263238"></path><path d="M199.24,398.05a7.36,7.36,0,1,1-7.36-7.36A7.35,7.35,0,0,1,199.24,398.05Z" style="fill:#ababab;stroke:#263238;stroke-linecap:round;stroke-linejoin:round"></path><path d="M395.76,409.36l-3.59-6.46A29.15,29.15,0,0,1,408,391.05c11.12-3.59,23.33-5.38,27.28-3.95s5,11.85,4.31,14.72-3.95,5.39-3.95,5.39Z" style="fill:#474747"></path><path d="M408,391.05a102,102,0,0,1,17.43-4,6.24,6.24,0,0,1,3.39,3.64c2.51,6.11,2.15,10.42-1.44,15.08a15.27,15.27,0,0,1-1.83,2l-29.76,1.61-3.59-6.46A29.15,29.15,0,0,1,408,391.05Z" style="fill:#263238"></path><circle cx="419.99" cy="398.05" r="7.36" transform="translate(-108.05 634.73) rotate(-67.61)" style="fill:#ababab;stroke:#263238;stroke-linecap:round;stroke-linejoin:round"></circle><path d="M212.88,214.79h5.75s1.77-7.62,7.34-9.38h4.5s-3.59-4.26-9-3.54S212.88,206.89,212.88,214.79Z" style="fill:#fff;stroke:#263238;stroke-linecap:round;stroke-linejoin:round"></path><path d="M225.82,202.32c-9.11,2.32-7.19,12.47-7.19,12.47s1.77-7.62,7.34-9.38h4.5A11.63,11.63,0,0,0,225.82,202.32Z" style="fill:#263238;stroke:#263238;stroke-linecap:round;stroke-linejoin:round"></path><path d="M397.05,214.79H391.3s-1.77-7.62-7.35-9.38h-4.5s3.59-4.26,9-3.54S397.05,206.89,397.05,214.79Z" style="fill:#fff;stroke:#263238;stroke-linecap:round;stroke-linejoin:round"></path><path d="M384.11,202.32c9.11,2.32,7.19,12.47,7.19,12.47s-1.77-7.62-7.35-9.38h-4.5A11.71,11.71,0,0,1,384.11,202.32Z" style="fill:#263238;stroke:#263238;stroke-linecap:round;stroke-linejoin:round"></path><path d="M223,277.87,277,274l10.17-3.5s38.94-1.41,65.95,2.8h-68.4" style="fill:none;stroke:#8a8a8a;stroke-linecap:round;stroke-linejoin:round"></path><polyline points="431.99 183.05 445.2 290.98 443.41 161.11" style="fill:none;stroke:#263238;stroke-miterlimit:10"></polyline><polyline points="440.38 112.64 445.2 290.98 459.64 148.63" style="fill:none;stroke:#263238;stroke-miterlimit:10"></polyline><line x1="418.81" y1="131.92" x2="445.66" y2="289.07" style="fill:none;stroke:#263238;stroke-miterlimit:10"></line><path d="M465.36,96c-.15,12-10.11,31.5-22.12,31.35s-21.8-19.86-21.37-31.87c.55-15.52,10-24.18,22-24S465.53,81.24,465.36,96Z" style="fill:#263238;stroke:#263238;stroke-linecap:round;stroke-linejoin:round"></path><path d="M458.14,84.18c1.11,3.23-.32,6.64-3.18,7.63s-6.1-.83-7.2-4.06.31-6.64,3.18-7.63S457,81,458.14,84.18Z" style="fill:#fff;opacity:0.5"></path><path d="M431.52,110.94c3.94,11.34,1.19,33.05-10.15,37s-27.25-11.28-30.93-22.71c-4.76-14.79,1.21-26.15,12.55-30.1S426.65,97,431.52,110.94Z" style="fill:#92E3A9;stroke:#263238;stroke-linecap:round;stroke-linejoin:round"></path><path d="M418.71,101.51c2.33,2.49,2.43,6.18.22,8.26s-5.9,1.73-8.23-.75-2.43-6.19-.22-8.27S416.38,99,418.71,101.51Z" style="fill:#fff;opacity:0.5"></path><path d="M485.1,130.41c-1.25,11.94-13,30.42-24.93,29.16s-19.86-21.81-18.32-33.72c2-15.4,12.23-23.15,24.17-21.89S486.65,115.69,485.1,130.41Z" style="fill:#92E3A9;stroke:#263238;stroke-linecap:round;stroke-linejoin:round"></path><path d="M479.7,118.15c1.54,3,.61,6.62-2.09,8s-6.15,0-7.7-3-.61-6.62,2.09-8S478.15,115.11,479.7,118.15Z" style="fill:#fff;opacity:0.5"></path><path d="M460.53,143.91c-1,12-12.44,30.65-24.41,29.61s-20.24-21.45-18.91-33.39c1.71-15.44,11.81-23.36,23.77-22.32S461.82,129.17,460.53,143.91Z" style="fill:#263238;stroke:#263238;stroke-linecap:round;stroke-linejoin:round"></path><path d="M452.71,130.07c1.11,3.22-.31,6.64-3.18,7.62s-6.09-.83-7.2-4.05.31-6.64,3.18-7.63S451.6,126.84,452.71,130.07Z" style="fill:#fff;opacity:0.5"></path><path d="M444.33,152.78c4,11.33,1.25,33.05-10.09,37s-27.27-11.24-31-22.66c-4.79-14.79,1.16-26.16,12.5-30.12S439.44,138.81,444.33,152.78Z" style="fill:#92E3A9;stroke:#263238;stroke-linecap:round;stroke-linejoin:round"></path><path d="M434.2,144c2.7,2.09,3.39,5.73,1.53,8.12s-5.54,2.66-8.24.57S424.1,147,426,144.57,431.5,141.92,434.2,144Z" style="fill:#fff;opacity:0.5"></path></g><g id="freepik--Floor--inject-62"><line x1="21" y1="460.7" x2="487" y2="460.7" style="fill:none;stroke:#263238;stroke-linecap:round;stroke-linejoin:round;stroke-width:0.908269px"></line></g></svg>
